<?xml version="1.0" encoding="UTF-8" standalone="no"?>
<!DOCTYPE svg PUBLIC "-//W3C//DTD SVG 1.1//EN" "http://www.w3.org/Graphics/SVG/1.1/DTD/svg11.dtd">
<svg width="100%" height="100%" viewBox="0 0 583 247" version="1.1" xmlns="http://www.w3.org/2000/svg" xmlns:xlink="http://www.w3.org/1999/xlink" xml:space="preserve" xmlns:serif="http://www.serif.com/" style="fill-rule:evenodd;clip-rule:evenodd;stroke-linejoin:round;stroke-miterlimit:2;">
    <g transform="matrix(1,0,0,1,-182.088,-609.096)">
        <g transform="matrix(1.25118,0,-0.57735,1,260.268,-8.84351)">
            <rect x="570.937" y="617.94" width="58.689" height="246.01" style="fill:rgb(140,56,141);"/>
        </g>
        <g transform="matrix(1.25118,0,-0.57735,1,333.698,-8.84351)">
            <rect x="570.937" y="617.94" width="58.689" height="246.01" style="fill:rgb(17,145,205);"/>
        </g>
        <g transform="matrix(1.25118,0,-0.57735,1,186.838,-8.84351)">
            <rect x="570.937" y="617.94" width="58.689" height="246.01" style="fill:rgb(225,49,58);"/>
        </g>
        <g transform="matrix(1.25118,0,-0.57735,1,113.408,-8.84351)">
            <rect x="570.937" y="617.94" width="58.689" height="246.01" style="fill:rgb(236,117,29);"/>
        </g>
        <g transform="matrix(1.25118,0,-0.57735,1,39.9777,-8.84351)">
            <rect x="570.937" y="617.94" width="58.689" height="246.01" style="fill:rgb(243,171,32);"/>
        </g>
        <g transform="matrix(1.25118,0,-0.57735,1,-33.4523,-8.84351)">
            <rect x="570.937" y="617.94" width="58.689" height="246.01" style="fill:rgb(90,172,63);"/>
        </g>
    </g>
</svg>
